<mxfile host="Electron" agent="Mozilla/5.0 (Macintosh; Intel Mac OS X 10_15_7) AppleWebKit/537.36 (KHTML, like Gecko) draw.io/25.0.2 Chrome/128.0.6613.186 Electron/32.2.5 Safari/537.36" version="25.0.2">
  <diagram name="Page-1" id="-H_mtQnk-PTXWXPvYvuk">
    <mxGraphModel dx="2074" dy="1214" grid="1" gridSize="10" guides="1" tooltips="1" connect="1" arrows="1" fold="1" page="1" pageScale="1" pageWidth="1169" pageHeight="827" math="0" shadow="0">
      <root>
        <mxCell id="0" />
        <mxCell id="1" parent="0" />
        <mxCell id="AoqwYZYNCvobjgKJvIQU-14" value="" style="rounded=1;whiteSpace=wrap;html=1;align=left;" parent="1" vertex="1">
          <mxGeometry x="840" y="110" width="270" height="150" as="geometry" />
        </mxCell>
        <mxCell id="zA23MoTUsTF4_91t8viU-2" value="MongoDB&lt;div&gt;shard_1&lt;/div&gt;&lt;div&gt;&lt;font style=&quot;font-size: 8px;&quot;&gt;PRIMARY&lt;/font&gt;&lt;/div&gt;" style="shape=cylinder3;whiteSpace=wrap;html=1;boundedLbl=1;backgroundOutline=1;size=15;" parent="1" vertex="1">
          <mxGeometry x="860" y="150" width="60" height="80" as="geometry" />
        </mxCell>
        <mxCell id="AoqwYZYNCvobjgKJvIQU-33" style="edgeStyle=orthogonalEdgeStyle;rounded=0;orthogonalLoop=1;jettySize=auto;html=1;entryX=0;entryY=0.5;entryDx=0;entryDy=0;" parent="1" source="zA23MoTUsTF4_91t8viU-3" target="AoqwYZYNCvobjgKJvIQU-3" edge="1">
          <mxGeometry relative="1" as="geometry">
            <Array as="points">
              <mxPoint x="540" y="420" />
              <mxPoint x="540" y="270" />
            </Array>
          </mxGeometry>
        </mxCell>
        <mxCell id="msX5Z3yjqydViCx9kQ3d-14" style="edgeStyle=orthogonalEdgeStyle;rounded=0;orthogonalLoop=1;jettySize=auto;html=1;entryX=0.5;entryY=1;entryDx=0;entryDy=0;" edge="1" parent="1" source="zA23MoTUsTF4_91t8viU-3" target="msX5Z3yjqydViCx9kQ3d-9">
          <mxGeometry relative="1" as="geometry">
            <Array as="points">
              <mxPoint x="170" y="400" />
            </Array>
          </mxGeometry>
        </mxCell>
        <mxCell id="zA23MoTUsTF4_91t8viU-3" value="pymongo-api" style="rounded=1;whiteSpace=wrap;html=1;" parent="1" vertex="1">
          <mxGeometry x="260" y="384" width="120" height="60" as="geometry" />
        </mxCell>
        <mxCell id="AoqwYZYNCvobjgKJvIQU-3" value="router" style="rounded=1;whiteSpace=wrap;html=1;" parent="1" vertex="1">
          <mxGeometry x="640" y="240" width="120" height="60" as="geometry" />
        </mxCell>
        <mxCell id="AoqwYZYNCvobjgKJvIQU-4" value="config server" style="rounded=1;whiteSpace=wrap;html=1;" parent="1" vertex="1">
          <mxGeometry x="640" y="120" width="120" height="60" as="geometry" />
        </mxCell>
        <mxCell id="AoqwYZYNCvobjgKJvIQU-11" value="" style="endArrow=classic;startArrow=classic;html=1;rounded=0;exitX=0.5;exitY=0;exitDx=0;exitDy=0;" parent="1" source="AoqwYZYNCvobjgKJvIQU-3" edge="1">
          <mxGeometry width="50" height="50" relative="1" as="geometry">
            <mxPoint x="670" y="430" as="sourcePoint" />
            <mxPoint x="700" y="180" as="targetPoint" />
          </mxGeometry>
        </mxCell>
        <mxCell id="AoqwYZYNCvobjgKJvIQU-13" value="Схема с шардированием, репликацией, кешированием и горизонтальным масштабированием" style="text;html=1;align=center;verticalAlign=middle;whiteSpace=wrap;rounded=0;" parent="1" vertex="1">
          <mxGeometry x="320" y="470" width="590" height="50" as="geometry" />
        </mxCell>
        <mxCell id="AoqwYZYNCvobjgKJvIQU-15" value="MongoDB&lt;div&gt;shard_1&lt;/div&gt;&lt;div&gt;&lt;font style=&quot;font-size: 8px;&quot;&gt;SECONDARY&lt;/font&gt;&lt;/div&gt;" style="shape=cylinder3;whiteSpace=wrap;html=1;boundedLbl=1;backgroundOutline=1;size=15;" parent="1" vertex="1">
          <mxGeometry x="945" y="150" width="60" height="80" as="geometry" />
        </mxCell>
        <mxCell id="AoqwYZYNCvobjgKJvIQU-17" value="MongoDB&lt;div&gt;shard_1&lt;/div&gt;&lt;div&gt;&lt;font style=&quot;font-size: 8px;&quot;&gt;SECONDARY&lt;/font&gt;&lt;/div&gt;" style="shape=cylinder3;whiteSpace=wrap;html=1;boundedLbl=1;backgroundOutline=1;size=15;" parent="1" vertex="1">
          <mxGeometry x="1030" y="150" width="60" height="80" as="geometry" />
        </mxCell>
        <mxCell id="AoqwYZYNCvobjgKJvIQU-18" value="shard_1" style="text;html=1;align=center;verticalAlign=middle;whiteSpace=wrap;rounded=0;" parent="1" vertex="1">
          <mxGeometry x="850" y="105" width="60" height="30" as="geometry" />
        </mxCell>
        <mxCell id="AoqwYZYNCvobjgKJvIQU-19" value="" style="endArrow=classic;html=1;rounded=0;exitX=0.5;exitY=1;exitDx=0;exitDy=0;exitPerimeter=0;entryX=0.5;entryY=1;entryDx=0;entryDy=0;entryPerimeter=0;" parent="1" source="zA23MoTUsTF4_91t8viU-2" target="AoqwYZYNCvobjgKJvIQU-17" edge="1">
          <mxGeometry width="50" height="50" relative="1" as="geometry">
            <mxPoint x="940" y="320" as="sourcePoint" />
            <mxPoint x="990" y="270" as="targetPoint" />
            <Array as="points">
              <mxPoint x="890" y="250" />
              <mxPoint x="1060" y="250" />
            </Array>
          </mxGeometry>
        </mxCell>
        <mxCell id="AoqwYZYNCvobjgKJvIQU-20" value="" style="endArrow=classic;html=1;rounded=0;entryX=0.5;entryY=1;entryDx=0;entryDy=0;entryPerimeter=0;" parent="1" target="AoqwYZYNCvobjgKJvIQU-15" edge="1">
          <mxGeometry width="50" height="50" relative="1" as="geometry">
            <mxPoint x="975" y="250" as="sourcePoint" />
            <mxPoint x="1070" y="290" as="targetPoint" />
          </mxGeometry>
        </mxCell>
        <mxCell id="AoqwYZYNCvobjgKJvIQU-21" value="" style="rounded=1;whiteSpace=wrap;html=1;align=left;" parent="1" vertex="1">
          <mxGeometry x="840" y="285" width="270" height="150" as="geometry" />
        </mxCell>
        <mxCell id="AoqwYZYNCvobjgKJvIQU-22" value="MongoDB&lt;div&gt;shard_2&lt;/div&gt;&lt;div&gt;&lt;font style=&quot;font-size: 8px;&quot;&gt;PRIMARY&lt;/font&gt;&lt;/div&gt;" style="shape=cylinder3;whiteSpace=wrap;html=1;boundedLbl=1;backgroundOutline=1;size=15;" parent="1" vertex="1">
          <mxGeometry x="860" y="325" width="60" height="80" as="geometry" />
        </mxCell>
        <mxCell id="AoqwYZYNCvobjgKJvIQU-23" value="MongoDB&lt;div&gt;shard_2&lt;/div&gt;&lt;div&gt;&lt;font style=&quot;font-size: 8px;&quot;&gt;SECONDARY&lt;/font&gt;&lt;/div&gt;" style="shape=cylinder3;whiteSpace=wrap;html=1;boundedLbl=1;backgroundOutline=1;size=15;" parent="1" vertex="1">
          <mxGeometry x="945" y="325" width="60" height="80" as="geometry" />
        </mxCell>
        <mxCell id="AoqwYZYNCvobjgKJvIQU-24" value="MongoDB&lt;div&gt;shard_2&lt;/div&gt;&lt;div&gt;&lt;font style=&quot;font-size: 8px;&quot;&gt;SECONDARY&lt;/font&gt;&lt;/div&gt;" style="shape=cylinder3;whiteSpace=wrap;html=1;boundedLbl=1;backgroundOutline=1;size=15;" parent="1" vertex="1">
          <mxGeometry x="1030" y="325" width="60" height="80" as="geometry" />
        </mxCell>
        <mxCell id="AoqwYZYNCvobjgKJvIQU-25" value="shard_2" style="text;html=1;align=center;verticalAlign=middle;whiteSpace=wrap;rounded=0;" parent="1" vertex="1">
          <mxGeometry x="850" y="280" width="60" height="30" as="geometry" />
        </mxCell>
        <mxCell id="AoqwYZYNCvobjgKJvIQU-26" value="" style="endArrow=classic;html=1;rounded=0;exitX=0.5;exitY=1;exitDx=0;exitDy=0;exitPerimeter=0;entryX=0.5;entryY=1;entryDx=0;entryDy=0;entryPerimeter=0;" parent="1" source="AoqwYZYNCvobjgKJvIQU-22" target="AoqwYZYNCvobjgKJvIQU-24" edge="1">
          <mxGeometry width="50" height="50" relative="1" as="geometry">
            <mxPoint x="940" y="495" as="sourcePoint" />
            <mxPoint x="990" y="445" as="targetPoint" />
            <Array as="points">
              <mxPoint x="890" y="425" />
              <mxPoint x="1060" y="425" />
            </Array>
          </mxGeometry>
        </mxCell>
        <mxCell id="AoqwYZYNCvobjgKJvIQU-27" value="" style="endArrow=classic;html=1;rounded=0;entryX=0.5;entryY=1;entryDx=0;entryDy=0;entryPerimeter=0;" parent="1" target="AoqwYZYNCvobjgKJvIQU-23" edge="1">
          <mxGeometry width="50" height="50" relative="1" as="geometry">
            <mxPoint x="975" y="425" as="sourcePoint" />
            <mxPoint x="1070" y="465" as="targetPoint" />
          </mxGeometry>
        </mxCell>
        <mxCell id="AoqwYZYNCvobjgKJvIQU-29" value="" style="endArrow=classic;html=1;rounded=0;entryX=0;entryY=0.5;entryDx=0;entryDy=0;" parent="1" target="AoqwYZYNCvobjgKJvIQU-14" edge="1">
          <mxGeometry width="50" height="50" relative="1" as="geometry">
            <mxPoint x="760" y="260" as="sourcePoint" />
            <mxPoint x="810" y="210" as="targetPoint" />
          </mxGeometry>
        </mxCell>
        <mxCell id="AoqwYZYNCvobjgKJvIQU-30" value="" style="endArrow=classic;html=1;rounded=0;exitX=1;exitY=0.75;exitDx=0;exitDy=0;entryX=0;entryY=0.5;entryDx=0;entryDy=0;" parent="1" source="AoqwYZYNCvobjgKJvIQU-3" target="AoqwYZYNCvobjgKJvIQU-21" edge="1">
          <mxGeometry width="50" height="50" relative="1" as="geometry">
            <mxPoint x="750" y="410" as="sourcePoint" />
            <mxPoint x="800" y="360" as="targetPoint" />
          </mxGeometry>
        </mxCell>
        <mxCell id="AoqwYZYNCvobjgKJvIQU-31" value="Redis&lt;div&gt;Cache&lt;/div&gt;" style="shape=cylinder3;whiteSpace=wrap;html=1;boundedLbl=1;backgroundOutline=1;size=15;" parent="1" vertex="1">
          <mxGeometry x="540" y="110" width="60" height="80" as="geometry" />
        </mxCell>
        <mxCell id="AoqwYZYNCvobjgKJvIQU-32" style="edgeStyle=orthogonalEdgeStyle;rounded=0;orthogonalLoop=1;jettySize=auto;html=1;entryX=0;entryY=0;entryDx=0;entryDy=52.5;entryPerimeter=0;" parent="1" source="zA23MoTUsTF4_91t8viU-3" target="AoqwYZYNCvobjgKJvIQU-31" edge="1">
          <mxGeometry relative="1" as="geometry">
            <Array as="points">
              <mxPoint x="490" y="400" />
              <mxPoint x="490" y="163" />
            </Array>
          </mxGeometry>
        </mxCell>
        <mxCell id="msX5Z3yjqydViCx9kQ3d-13" style="edgeStyle=orthogonalEdgeStyle;rounded=0;orthogonalLoop=1;jettySize=auto;html=1;entryX=0.75;entryY=1;entryDx=0;entryDy=0;" edge="1" parent="1" source="msX5Z3yjqydViCx9kQ3d-1" target="msX5Z3yjqydViCx9kQ3d-9">
          <mxGeometry relative="1" as="geometry">
            <Array as="points">
              <mxPoint x="200" y="280" />
            </Array>
          </mxGeometry>
        </mxCell>
        <mxCell id="msX5Z3yjqydViCx9kQ3d-1" value="pymongo-api" style="rounded=1;whiteSpace=wrap;html=1;" vertex="1" parent="1">
          <mxGeometry x="260" y="265" width="120" height="60" as="geometry" />
        </mxCell>
        <mxCell id="msX5Z3yjqydViCx9kQ3d-4" style="edgeStyle=orthogonalEdgeStyle;rounded=0;orthogonalLoop=1;jettySize=auto;html=1;entryX=0;entryY=0.25;entryDx=0;entryDy=0;" edge="1" parent="1" source="msX5Z3yjqydViCx9kQ3d-2" target="AoqwYZYNCvobjgKJvIQU-3">
          <mxGeometry relative="1" as="geometry">
            <Array as="points">
              <mxPoint x="540" y="190" />
              <mxPoint x="540" y="255" />
            </Array>
          </mxGeometry>
        </mxCell>
        <mxCell id="msX5Z3yjqydViCx9kQ3d-2" value="pymongo-api" style="rounded=1;whiteSpace=wrap;html=1;" vertex="1" parent="1">
          <mxGeometry x="260" y="120" width="120" height="60" as="geometry" />
        </mxCell>
        <mxCell id="msX5Z3yjqydViCx9kQ3d-3" style="edgeStyle=orthogonalEdgeStyle;rounded=0;orthogonalLoop=1;jettySize=auto;html=1;entryX=-0.008;entryY=0.867;entryDx=0;entryDy=0;entryPerimeter=0;" edge="1" parent="1" source="msX5Z3yjqydViCx9kQ3d-1" target="AoqwYZYNCvobjgKJvIQU-3">
          <mxGeometry relative="1" as="geometry" />
        </mxCell>
        <mxCell id="msX5Z3yjqydViCx9kQ3d-5" style="edgeStyle=orthogonalEdgeStyle;rounded=0;orthogonalLoop=1;jettySize=auto;html=1;entryX=0;entryY=0.5;entryDx=0;entryDy=0;entryPerimeter=0;" edge="1" parent="1" source="msX5Z3yjqydViCx9kQ3d-1" target="AoqwYZYNCvobjgKJvIQU-31">
          <mxGeometry relative="1" as="geometry" />
        </mxCell>
        <mxCell id="msX5Z3yjqydViCx9kQ3d-6" style="edgeStyle=orthogonalEdgeStyle;rounded=0;orthogonalLoop=1;jettySize=auto;html=1;entryX=0;entryY=0;entryDx=0;entryDy=15;entryPerimeter=0;" edge="1" parent="1" source="msX5Z3yjqydViCx9kQ3d-2" target="AoqwYZYNCvobjgKJvIQU-31">
          <mxGeometry relative="1" as="geometry" />
        </mxCell>
        <mxCell id="msX5Z3yjqydViCx9kQ3d-11" style="edgeStyle=orthogonalEdgeStyle;rounded=0;orthogonalLoop=1;jettySize=auto;html=1;entryX=0;entryY=0.5;entryDx=0;entryDy=0;" edge="1" parent="1" source="msX5Z3yjqydViCx9kQ3d-7" target="msX5Z3yjqydViCx9kQ3d-9">
          <mxGeometry relative="1" as="geometry">
            <Array as="points">
              <mxPoint x="60" y="75" />
            </Array>
          </mxGeometry>
        </mxCell>
        <mxCell id="msX5Z3yjqydViCx9kQ3d-15" style="edgeStyle=orthogonalEdgeStyle;rounded=0;orthogonalLoop=1;jettySize=auto;html=1;entryX=0;entryY=0.75;entryDx=0;entryDy=0;" edge="1" parent="1" source="msX5Z3yjqydViCx9kQ3d-7" target="msX5Z3yjqydViCx9kQ3d-2">
          <mxGeometry relative="1" as="geometry">
            <Array as="points">
              <mxPoint x="120" y="165" />
              <mxPoint x="120" y="165" />
            </Array>
          </mxGeometry>
        </mxCell>
        <mxCell id="msX5Z3yjqydViCx9kQ3d-17" style="edgeStyle=orthogonalEdgeStyle;rounded=0;orthogonalLoop=1;jettySize=auto;html=1;entryX=0;entryY=0.75;entryDx=0;entryDy=0;" edge="1" parent="1" source="msX5Z3yjqydViCx9kQ3d-7" target="zA23MoTUsTF4_91t8viU-3">
          <mxGeometry relative="1" as="geometry">
            <Array as="points">
              <mxPoint x="130" y="429" />
              <mxPoint x="130" y="429" />
            </Array>
          </mxGeometry>
        </mxCell>
        <mxCell id="msX5Z3yjqydViCx9kQ3d-18" style="edgeStyle=orthogonalEdgeStyle;rounded=0;orthogonalLoop=1;jettySize=auto;html=1;entryX=0;entryY=0.75;entryDx=0;entryDy=0;" edge="1" parent="1" source="msX5Z3yjqydViCx9kQ3d-7" target="msX5Z3yjqydViCx9kQ3d-1">
          <mxGeometry relative="1" as="geometry">
            <Array as="points">
              <mxPoint x="130" y="310" />
              <mxPoint x="130" y="310" />
            </Array>
          </mxGeometry>
        </mxCell>
        <mxCell id="msX5Z3yjqydViCx9kQ3d-7" value="" style="rounded=1;whiteSpace=wrap;html=1;" vertex="1" parent="1">
          <mxGeometry x="30" y="150" width="60" height="290" as="geometry" />
        </mxCell>
        <mxCell id="msX5Z3yjqydViCx9kQ3d-8" value="&lt;font style=&quot;font-size: 22px;&quot;&gt;API GATEWAY&lt;/font&gt;" style="text;html=1;align=center;verticalAlign=middle;whiteSpace=wrap;rounded=0;rotation=-90;" vertex="1" parent="1">
          <mxGeometry x="-20" y="265" width="160" height="30" as="geometry" />
        </mxCell>
        <mxCell id="msX5Z3yjqydViCx9kQ3d-9" value="CONSUL" style="rounded=1;whiteSpace=wrap;html=1;" vertex="1" parent="1">
          <mxGeometry x="110" y="45" width="120" height="60" as="geometry" />
        </mxCell>
        <mxCell id="msX5Z3yjqydViCx9kQ3d-12" style="edgeStyle=orthogonalEdgeStyle;rounded=0;orthogonalLoop=1;jettySize=auto;html=1;entryX=0.915;entryY=0.987;entryDx=0;entryDy=0;entryPerimeter=0;" edge="1" parent="1" source="msX5Z3yjqydViCx9kQ3d-2" target="msX5Z3yjqydViCx9kQ3d-9">
          <mxGeometry relative="1" as="geometry" />
        </mxCell>
      </root>
    </mxGraphModel>
  </diagram>
</mxfile>
